<svg xmlns="http://www.w3.org/2000/svg" viewBox="0 0 32 32">
          <path
            fill="#fff"
            d="M25.25 27h-18.5c-1.375 0-2.5-1.125-2.5-2.5v-17c0-1.375 1.125-2.5 2.5-2.5h18.5c1.375 0 2.5 1.125 2.5 2.5v17c0 1.375-1.125 2.5-2.5 2.5z"
          ></path>
          <path
            fill="#1b293a"
            d="M27.75 11.25h-23.5c-0.425 0-0.75-0.325-0.75-0.75s0.325-0.75 0.75-0.75h23.5c0.425 0 0.75 0.325 0.75 0.75s-0.325 0.75-0.75 0.75zM9.25 8.5c-0.2 0-0.4-0.075-0.525-0.225-0.15-0.125-0.225-0.325-0.225-0.525s0.075-0.4 0.225-0.525c0.275-0.275 0.775-0.275 1.050 0 0.15 0.15 0.225 0.325 0.225 0.525s-0.075 0.4-0.225 0.525c-0.125 0.15-0.325 0.225-0.525 0.225zM16 8.5c-0.2 0-0.4-0.075-0.525-0.225-0.15-0.125-0.225-0.325-0.225-0.525s0.075-0.4 0.225-0.525c0.275-0.275 0.775-0.275 1.050 0 0.15 0.15 0.225 0.325 0.225 0.525s-0.075 0.4-0.225 0.525c-0.125 0.15-0.325 0.225-0.525 0.225zM23.5 8.5c-0.2 0-0.4-0.075-0.525-0.225-0.15-0.125-0.225-0.325-0.225-0.525s0.075-0.4 0.225-0.525c0.275-0.275 0.775-0.275 1.050 0 0.15 0.15 0.225 0.325 0.225 0.525s-0.075 0.4-0.225 0.525c-0.125 0.15-0.325 0.225-0.525 0.225z"
          ></path>
          <path
            fill="#1b293a"
            d="M25.25 27.75h-18.5c-1.8 0-3.25-1.45-3.25-3.25v-17c0-1.8 1.45-3.25 3.25-3.25h18.5c1.8 0 3.25 1.45 3.25 3.25v17c0 1.8-1.45 3.25-3.25 3.25zM6.75 5.75c-0.975 0-1.75 0.775-1.75 1.75v17c0 0.975 0.775 1.75 1.75 1.75h18.5c0.975 0 1.75-0.775 1.75-1.75v-17c0-0.975-0.775-1.75-1.75-1.75h-18.5z"
          ></path>
          <path fill="#1f9dd9" d="M13.5 13h5v5h-5v-5z"></path>
          <path fill="#1f9dd9" d="M6.75 13h5v5h-5v-5z"></path>
          <path fill="#1f9dd9" d="M20.25 13h5v5h-5v-5z"></path>
          <path
            fill="#1f9dd9"
            d="M13.5 19.75h5v5h-5v-5zM6.75 19.75h5v5h-5v-5z"
          ></path>
          <path fill="#1f9dd9" d="M20.25 19.75h5v5h-5v-5z"></path>
        </svg>