<svg xmlns="http://www.w3.org/2000/svg" viewBox="0 0 32 32" fill="none">
          <path
            fill="#fff"
            d="M25.275 26.4c-1.85-3.225-5.3-5.4-9.275-5.4s-7.425 2.175-9.275 5.4l0.025 0.85h18.5l0.025-0.85z"
          ></path>
          <path
            fill="#1b293a"
            d="M19.7 22.425c-0.075 0-0.175-0.025-0.25-0.050-1.1-0.4-2.25-0.625-3.45-0.625-0.425 0-0.75-0.325-0.75-0.75s0.325-0.75 0.75-0.75c1.375 0 2.7 0.25 3.975 0.7 0.4 0.15 0.575 0.575 0.45 0.975-0.125 0.3-0.425 0.5-0.725 0.5z"
          ></path>
          <path
            fill="#1b293a"
            d="M6.725 27.15c-0.125 0-0.25-0.025-0.375-0.1-0.35-0.2-0.475-0.65-0.275-1.025 2.025-3.55 5.825-5.775 9.925-5.775 0.425 0 0.75 0.325 0.75 0.75s-0.325 0.75-0.75 0.75c-3.55 0-6.85 1.925-8.625 5.025-0.125 0.225-0.375 0.375-0.65 0.375z"
          ></path>
          <path
            fill="#fff"
            d="M16 7.5c-1.326 0-2.598 0.527-3.536 1.464s-1.464 2.209-1.464 3.536c0 1.326 0.527 2.598 1.464 3.536s2.209 1.464 3.536 1.464 2.598-0.527 3.536-1.464c0.938-0.938 1.465-2.209 1.465-3.536s-0.527-2.598-1.465-3.536c-0.938-0.938-2.209-1.465-3.536-1.465z"
          ></path>
          <path
            fill="#1b293a"
            d="M16 18.25c-3.175 0-5.75-2.575-5.75-5.75s2.575-5.75 5.75-5.75 5.75 2.575 5.75 5.75c0 3.175-2.575 5.75-5.75 5.75zM16 8.25c-2.35 0-4.25 1.9-4.25 4.25s1.9 4.25 4.25 4.25 4.25-1.9 4.25-4.25c0-2.35-1.9-4.25-4.25-4.25z"
          ></path>
          <path
            fill="#fff"
            d="M26.975 27.25h-3.5c-0.425 0-0.75-0.325-0.75-0.75s0.325-0.75 0.75-0.75h3.5c0.425 0 0.75 0.325 0.75 0.75s-0.325 0.75-0.75 0.75z"
          ></path>
          <path
            fill="#1f9dd9"
            d="M20.25 26.5c0-2.75 2.25-5 5-5 1.3 0 2.5 0.5 3.375 1.325 0.1 0.1-0.175 0.25-0.225 0.4-0.025 0.15 0.175 0.325 0.25 0.425 0.1 0.125 0.375 0.4 0.6 0.45 0.15 0.025 0.275-0.175 0.3-0.1 0.425 0.725 0.675 1.6 0.675 2.5 0 2.75-2.25 5-5 5s-4.975-2.25-4.975-5z"
          ></path>
          <path
            fill="#fff"
            d="M28.625 22.825l-3.35 3.75-1.2-1.55c-0.25-0.325-0.725-0.375-1.050-0.125s-0.375 0.725-0.125 1.050l1.75 2.25c0.125 0.175 0.35 0.275 0.575 0.3h0.025c0.225 0 0.425-0.1 0.55-0.25l3.775-4.25c-0.25-0.425-0.575-0.825-0.95-1.175z"
          ></path>
        </svg>