<svg xmlns="http://www.w3.org/2000/svg" viewBox="0 0 32 32">
          <path
            fill="#fff"
            d="M5.45 6.5c-1.16 0-2.273 0.461-3.094 1.281s-1.281 1.933-1.281 3.094c0 1.16 0.461 2.273 1.281 3.094s1.933 1.281 3.094 1.281c1.16 0 2.273-0.461 3.094-1.281s1.281-1.933 1.281-3.094c0-1.16-0.461-2.273-1.281-3.094s-1.933-1.281-3.094-1.281z"
          ></path>
          <path
            fill="#1f9dd9"
            d="M5.25 10.875h18.025c1.225 0 2.375 0.6 3.075 1.625l3.725 5.375c0.1 0.325 0.175 0.675 0.175 1.025 0 1.775-1.45 3.225-3.225 3.225h-7.2c-4.65 0-7.9-4.625-6.325-9l1.1-2.275-9.35 0.025z"
          ></path>
          <path
            fill="#fff"
            d="M30.075 17.875l-3.7-5.375c-0.7-1.025-1.85-1.625-3.075-1.625h-3.475v3.75c0 2.075 1.675 3.75 3.75 3.75h6.625c-0.025-0.175-0.050-0.325-0.125-0.5z"
          ></path>
          <path
            fill="#1b293a"
            d="M23.575 19.125c-1.2 0-2.325-0.475-3.175-1.325s-1.325-1.975-1.325-3.175v-1.25c0-0.425 0.325-0.75 0.75-0.75s0.75 0.325 0.75 0.75v1.25c0 0.8 0.3 1.55 0.875 2.125s1.325 0.875 2.125 0.875h6.375c0.425 0 0.75 0.325 0.75 0.75s-0.325 0.75-0.75 0.75h-6.375z"
          ></path>
          <path
            fill="#1b293a"
            d="M27.025 22.875h-7.2c-2.475 0-4.7-1.15-6.1-3.175-1.425-2.025-1.75-4.5-0.9-6.825 0.15-0.4 0.575-0.6 0.95-0.45 0.4 0.15 0.6 0.575 0.45 0.95-0.675 1.85-0.4 3.85 0.725 5.45 1.125 1.625 2.925 2.55 4.875 2.55h7.2c1.375 0 2.475-1.1 2.475-2.475 0-0.35-0.125-0.725-0.35-1.050l-3.4-4.925c-0.55-0.8-1.475-1.3-2.475-1.3h-17.775c-0.425 0-0.75-0.325-0.75-0.75s0.325-0.75 0.75-0.75h17.775c1.475 0 2.875 0.725 3.7 1.95l3.4 4.925c0.4 0.575 0.625 1.25 0.625 1.9 0 2.2-1.775 3.975-3.975 3.975zM30.275 26.125h-16.95c-0.425 0-0.75-0.325-0.75-0.75s0.325-0.75 0.75-0.75h16.95c0.425 0 0.75 0.325 0.75 0.75s-0.325 0.75-0.75 0.75z"
          ></path>
          <path
            fill="#1b293a"
            d="M5.475 15.425c-2.475 0-4.5-2.025-4.5-4.5s2.025-4.5 4.5-4.5c0.425 0 0.75 0.325 0.75 0.75s-0.325 0.75-0.75 0.75c-1.65 0-3 1.35-3 3s1.35 3 3 3c0.9 0 1.75-0.4 2.325-1.1 0.275-0.325 0.725-0.375 1.050-0.1s0.375 0.725 0.1 1.050c-0.85 1.050-2.125 1.65-3.475 1.65zM29.45 7.925h-21.5c-0.425 0-0.75-0.325-0.75-0.75s0.325-0.75 0.75-0.75h21.5c0.425 0 0.75 0.325 0.75 0.75s-0.325 0.75-0.75 0.75z"
          ></path>
          <path
            fill="#1b293a"
            d="M18.475 9.125c-0.425 0-0.75-0.325-0.75-0.75v-1.75c0-0.425 0.325-0.75 0.75-0.75s0.75 0.325 0.75 0.75v1.75c0 0.425-0.325 0.75-0.75 0.75z"
          ></path>
          <path
            fill="#fff"
            d="M18.35 14.775h-1.3v-1.3h-1.15v1.3h-1.3v1.175h1.3v1.275h1.15v-1.275h1.3v-1.175z"
          ></path>
          <path
            fill="#1b293a"
            d="M13.5 13.875c-0.1 0-0.2-0.025-0.3-0.075-0.375-0.175-0.55-0.6-0.375-1l0.8-1.85c0.175-0.375 0.6-0.55 0.975-0.375s0.55 0.6 0.375 1l-0.8 1.85c-0.1 0.275-0.375 0.45-0.675 0.45z"
          ></path>
        </svg>