<svg xmlns="http://www.w3.org/2000/svg" viewBox="0 0 32 32" fill="none">
          <path
            fill="#fff"
            d="M12.95 22.725c0.675-0.9 1.050-2.025 1.050-3.225 0-3.050-2.45-5.5-5.5-5.5s-5.5 2.45-5.5 5.5c0 1.2 0.375 2.325 1.050 3.225 0.025 0.050 0.050 0.075 0.075 0.125l4.375 5.9 4.375-5.925c0.025-0.025 0.050-0.050 0.075-0.1z"
          ></path>
          <path
            fill="#1b293a"
            d="M8.5 29.5c-0.25 0-0.45-0.125-0.6-0.3l-4.375-5.925c-0.025-0.025-0.050-0.075-0.1-0.125-0.775-1.050-1.175-2.325-1.175-3.65 0-3.45 2.8-6.25 6.25-6.25s6.25 2.8 6.25 6.25c0 1.325-0.4 2.575-1.175 3.625l-0.025 0.025-0.075 0.1-4.375 5.925c-0.15 0.2-0.35 0.325-0.6 0.325zM8.5 14.75c-2.625 0-4.75 2.125-4.75 4.75 0 1 0.3 1.975 0.9 2.775 0.025 0.025 0.050 0.075 0.075 0.1l3.775 5.125 3.825-5.2c0 0 0 0 0-0.025 0.625-0.8 0.925-1.775 0.925-2.775 0-2.625-2.125-4.75-4.75-4.75z"
          ></path>
          <path
            fill="#1f9dd9"
            d="M21.075 8.75c-0.375-0.5-0.575-1.125-0.575-1.75 0-1.65 1.35-3 3-3s3 1.35 3 3c0 0.625-0.2 1.25-0.575 1.75l-2.425 3.3-2.425-3.3z"
          ></path>
          <path
            fill="#1b293a"
            d="M23.5 12.8c-0.25 0-0.45-0.125-0.6-0.3l-2.425-3.3c-0.475-0.65-0.725-1.4-0.725-2.2 0-2.075 1.675-3.75 3.75-3.75s3.75 1.675 3.75 3.75c0 0.8-0.25 1.55-0.7 2.2l-2.45 3.3c-0.15 0.175-0.35 0.3-0.6 0.3zM23.5 4.75c-1.25 0-2.25 1-2.25 2.25 0 0.475 0.15 0.925 0.425 1.325l1.825 2.475 1.825-2.475c0.275-0.375 0.425-0.825 0.425-1.3 0-1.275-1-2.275-2.25-2.275zM27 29.5h-0.25c-0.425 0-0.75-0.325-0.75-0.75 0 0 0 0 0-0.025-0.15-0.3-0.1-0.675 0.15-0.9 0.3-0.275 0.775-0.25 1.050 0.050l0.35 0.375c0.2 0.225 0.25 0.525 0.125 0.8-0.1 0.275-0.375 0.45-0.675 0.45zM23.75 29.5h-0.75c-0.425 0-0.75-0.325-0.75-0.75s0.325-0.75 0.75-0.75h0.75c0.425 0 0.75 0.325 0.75 0.75s-0.325 0.75-0.75 0.75zM20 29.5h-0.75c-0.425 0-0.75-0.325-0.75-0.75s0.325-0.75 0.75-0.75h0.75c0.425 0 0.75 0.325 0.75 0.75s-0.325 0.75-0.75 0.75zM16.25 29.5h-0.75c-0.425 0-0.75-0.325-0.75-0.75s0.325-0.75 0.75-0.75h0.75c0.425 0 0.75 0.325 0.75 0.75s-0.325 0.75-0.75 0.75zM12.5 29.5h-0.75c-0.425 0-0.75-0.325-0.75-0.75s0.325-0.75 0.75-0.75h0.75c0.425 0 0.75 0.325 0.75 0.75s-0.325 0.75-0.75 0.75zM24.625 26.925c-0.2 0-0.4-0.075-0.55-0.25l-0.5-0.55c-0.275-0.3-0.25-0.775 0.050-1.050s0.775-0.25 1.050 0.050l0.5 0.55c0.275 0.3 0.25 0.775-0.050 1.050-0.125 0.125-0.325 0.2-0.5 0.2zM22.1 24.175c-0.2 0-0.4-0.075-0.55-0.25l-0.5-0.55c-0.275-0.3-0.25-0.775 0.050-1.050s0.775-0.25 1.050 0.050l0.5 0.55c0.275 0.3 0.25 0.775-0.050 1.050-0.15 0.125-0.325 0.2-0.5 0.2zM19.55 21.4c-0.2 0-0.4-0.075-0.55-0.25l-0.5-0.55c-0.275-0.3-0.25-0.775 0.050-1.050s0.775-0.25 1.050 0.050l0.5 0.55c0.275 0.3 0.25 0.775-0.050 1.050-0.125 0.15-0.325 0.2-0.5 0.2zM19.425 18.525c-0.15 0-0.325-0.050-0.45-0.15-0.325-0.25-0.4-0.725-0.15-1.050l0.45-0.6c0.25-0.325 0.725-0.4 1.050-0.15s0.4 0.725 0.15 1.050l-0.45 0.6c-0.15 0.2-0.375 0.3-0.6 0.3zM21.675 15.525c-0.15 0-0.325-0.050-0.45-0.15-0.325-0.25-0.4-0.725-0.15-1.050l0.45-0.6c0.25-0.325 0.725-0.4 1.050-0.15s0.4 0.725 0.15 1.050l-0.45 0.6c-0.15 0.2-0.375 0.3-0.6 0.3z"
          ></path>
          <path
            fill="#1f9dd9"
            d="M8.5 17c-0.663 0-1.299 0.263-1.768 0.732s-0.732 1.105-0.732 1.768c0 0.663 0.263 1.299 0.732 1.768s1.105 0.732 1.768 0.732c0.663 0 1.299-0.263 1.768-0.732s0.732-1.105 0.732-1.768c0-0.663-0.263-1.299-0.732-1.768s-1.105-0.732-1.768-0.732z"
          ></path>
        </svg>