<svg xmlns="http://www.w3.org/2000/svg" viewBox="0 0 32 32">
          <path
            fill="#fff"
            d="M26.85 6.25l-9.75-4.775c-0.692-0.34-1.505-0.34-2.2 0l-9.75 4.775c-0.857 0.42-1.4 1.29-1.4 2.245v6.832c0 6.765 5.048 12.805 11.355 15.283 0.575 0.225 1.215 0.225 1.79 0 6.308-2.477 11.355-8.517 11.355-15.283v-6.832c0-0.955-0.543-1.825-1.4-2.245z"
          ></path>
          <path
            fill="#1b293a"
            d="M11.748 29.632c-0.14 0-0.28-0.040-0.408-0.12-5.145-3.337-8.34-8.772-8.34-14.185v-6.833c0-1.233 0.715-2.377 1.82-2.92l9.75-4.775c0.895-0.438 1.965-0.438 2.86 0l9.75 4.775c1.105 0.543 1.82 1.687 1.82 2.92v3.16c0 0.415-0.335 0.75-0.75 0.75s-0.75-0.335-0.75-0.75v-3.16c0-0.663-0.385-1.28-0.98-1.572l-9.75-4.775c-0.483-0.235-1.057-0.235-1.54 0l-9.75 4.775c-0.595 0.292-0.98 0.91-0.98 1.572v6.833c0 4.91 2.935 9.862 7.657 12.925 0.348 0.225 0.447 0.69 0.223 1.038-0.145 0.223-0.385 0.343-0.633 0.343z"
          ></path>
          <path
            fill="#1f9dd9"
            d="M22 31.877c5.247 0 9.5-4.253 9.5-9.5s-4.253-9.5-9.5-9.5-9.5 4.253-9.5 9.5c0 5.247 4.253 9.5 9.5 9.5z"
          ></path>
          <path
            fill="#fff"
            d="M21.363 25.878c-0.187 0-0.372-0.070-0.517-0.207l-2.612-2.5c-0.3-0.287-0.31-0.76-0.023-1.060s0.76-0.31 1.060-0.022l2.102 2.012 4.87-4.52c0.305-0.283 0.778-0.265 1.060 0.040 0.283 0.303 0.265 0.778-0.040 1.060l-5.388 5c-0.145 0.13-0.33 0.197-0.513 0.197z"
          ></path>
          <path
            fill="#1b293a"
            d="M16 12.38c-0.415 0-0.75-0.335-0.75-0.75v-4.25c0-0.415 0.335-0.75 0.75-0.75s0.75 0.335 0.75 0.75v4.25c0 0.415-0.335 0.75-0.75 0.75z"
          ></path>
        </svg>