<svg width="165" height="66" viewBox="0 0 165 66" fill="none" xmlns="http://www.w3.org/2000/svg">
<path fill-rule="evenodd" clip-rule="evenodd" d="M122.597 53.6273C123.045 53.6273 123.471 53.7112 123.868 53.8747C124.269 54.0425 124.669 54.3147 125.07 54.6933V53.8295H127.022V60.553C127.022 61.8795 126.756 62.8562 126.227 63.4823C125.513 64.3268 124.44 64.7517 123.005 64.7517C122.239 64.7517 121.594 64.6549 121.074 64.4624C120.553 64.2698 120.114 63.9858 119.756 63.6157C119.396 63.2424 119.131 62.7896 118.96 62.2571H121.117C121.309 62.4754 121.554 62.6443 121.856 62.7573C122.158 62.8692 122.515 62.9262 122.927 62.9262C123.453 62.9262 123.876 62.8444 124.195 62.6809C124.516 62.5174 124.743 62.3055 124.874 62.0451C125.006 61.7869 125.07 61.3394 125.07 60.7036C124.728 61.049 124.364 61.2985 123.988 61.4491C123.61 61.6019 123.181 61.6772 122.703 61.6772C121.655 61.6772 120.772 61.2985 120.048 60.538C119.327 59.7785 118.965 58.8178 118.965 57.6528C118.965 56.4081 119.348 55.4066 120.114 54.6514C120.808 53.9672 121.635 53.6273 122.597 53.6273ZM80.5078 53.6266C81.7371 53.6266 82.7364 54.0236 83.5079 54.8153C84.2782 55.6049 84.6623 56.6495 84.6623 57.948L84.6548 58.3223H78.3626C78.4535 58.8796 78.6975 59.326 79.0923 59.6541C79.4871 59.9833 79.9889 60.1479 80.6019 60.1479C81.3338 60.1479 81.9629 59.8929 82.4893 59.3766L84.1391 60.1554C83.7272 60.7428 83.235 61.1774 82.6605 61.4582C82.087 61.739 81.4055 61.8799 80.6158 61.8799C79.3919 61.8799 78.3947 61.4915 77.6243 60.7148C76.8551 59.9381 76.4699 58.9656 76.4699 57.7974C76.4699 56.6 76.8529 55.6049 77.6211 54.8153C78.3893 54.0236 79.3501 53.6266 80.5078 53.6266ZM33.049 53.6269C33.7851 53.6269 34.4784 53.812 35.1257 54.181C35.7752 54.5521 36.2802 55.0566 36.6429 55.6903C37.0067 56.326 37.1896 57.0113 37.1896 57.746C37.1896 58.4883 37.0056 59.179 36.6386 59.8244C36.2727 60.4688 35.7762 60.9723 35.145 61.3348C34.5127 61.6984 33.8161 61.8791 33.0565 61.8791C31.9373 61.8791 30.9808 61.48 30.1902 60.6786C29.3984 59.8771 29.0015 58.9046 29.0015 57.7611C29.0015 56.5358 29.4498 55.5128 30.3431 54.693C31.1285 53.983 32.0304 53.6269 33.049 53.6269ZM56.9351 50.7985V61.6778H54.9761V60.8473C54.5941 61.213 54.2111 61.4776 53.8259 61.6379C53.4408 61.7993 53.0256 61.8789 52.5762 61.8789C51.5673 61.8789 50.6953 61.4852 49.9592 60.6999C49.2242 59.9135 48.8572 58.9378 48.8572 57.7663C48.8572 56.556 49.2124 55.562 49.9239 54.7885C50.6354 54.0151 51.501 53.6267 52.5185 53.6267C52.986 53.6267 53.4268 53.7149 53.8366 53.8935C54.2464 54.0732 54.6273 54.3389 54.9761 54.6928V50.7985H56.9351ZM107.236 53.8293V61.6781H105.278V53.8293H107.236ZM98.2065 50.7987V57.064L101.092 53.8292H103.552L100.189 57.5911L103.954 61.678H101.523L98.2065 58.0612V61.678H96.2496V50.7987H98.2065ZM88.9503 50.7987V57.064L91.8326 53.8292H94.2935L90.9307 57.5911L94.6947 61.678H92.2649L88.9503 58.0612V61.678H86.9902V50.7987H88.9503ZM42.4588 53.6268C42.7113 53.6268 42.9766 53.6946 43.2538 53.8291L42.645 55.5223C42.416 55.4083 42.2256 55.3513 42.0779 55.3513C41.7762 55.3513 41.5226 55.5385 41.314 55.9128C41.1064 56.2883 41.0016 57.0241 41.0016 58.1203L41.008 58.5054V61.6779H39.0639V53.8291H40.7437V54.8166C40.9245 54.4283 41.1663 54.1314 41.468 53.9302C41.7687 53.728 42.0993 53.6268 42.4588 53.6268ZM74.3361 53.6268C74.5886 53.6268 74.854 53.6946 75.1321 53.8291L74.5223 55.5223C74.2922 55.4083 74.1039 55.3513 73.9552 55.3513C73.6535 55.3513 73.3989 55.5385 73.1913 55.9128C72.9827 56.2883 72.8799 57.0241 72.8799 58.1203L72.8864 58.5054V61.6779H70.9412V53.8291H72.62V54.8166C72.8018 54.4283 73.0436 54.1314 73.3454 53.9302C73.646 53.728 73.9766 53.6268 74.3361 53.6268ZM46.7004 50.7989V61.6781H44.7425V50.7989H46.7004ZM114.023 53.6268C114.796 53.6268 115.453 53.8969 115.994 54.4412C116.448 54.9048 116.674 55.5879 116.674 56.4916V61.6779H114.737V58.2408C114.737 57.3038 114.695 56.682 114.611 56.3754C114.527 56.0677 114.382 55.8332 114.175 55.6708C113.967 55.5116 113.711 55.4309 113.406 55.4309C113.009 55.4309 112.669 55.5643 112.387 55.8289C112.101 56.0979 111.905 56.4668 111.795 56.937C111.737 57.1822 111.71 57.7115 111.71 58.528V61.6779H109.749V53.8291H111.71V54.6348C112.153 54.2572 112.556 53.9947 112.917 53.8484C113.277 53.7011 113.646 53.6268 114.023 53.6268ZM16.8162 51.0672L18.3419 57.8402L20.226 51.0672H21.8972L23.8092 57.8402L25.3189 51.0672H27.2961L24.9177 61.6774H22.9896L21.0456 54.8162L19.1379 61.6774H17.2292L14.84 51.0672H16.8162ZM69.5034 51.0672V53.0584H67.5807V61.6774H65.5436V53.0584H63.6701V51.0672H69.5034ZM52.9176 55.4448C52.313 55.4448 51.8091 55.6599 51.409 56.0924C51.0099 56.5216 50.8077 57.0724 50.8077 57.7458C50.8077 58.4257 51.012 58.9808 51.4207 59.4208C51.8273 59.8565 52.328 60.0749 52.924 60.0749C53.5392 60.0749 54.0495 59.8597 54.455 59.4305C54.8605 59.0002 55.0617 58.4365 55.0617 57.7383C55.0617 57.0573 54.8605 56.5044 54.455 56.0805C54.0495 55.6556 53.537 55.4448 52.9176 55.4448ZM33.0811 55.4826C32.4734 55.4826 31.9662 55.6935 31.5618 56.1184C31.1563 56.5444 30.9541 57.0909 30.9541 57.7536C30.9541 58.4367 31.1531 58.9907 31.5543 59.4113C31.9534 59.8352 32.4605 60.0493 33.0736 60.0493C33.6877 60.0493 34.1981 59.833 34.6057 59.4049C35.0123 58.9778 35.2167 58.427 35.2167 57.7536C35.2167 57.0791 35.0155 56.5336 34.6164 56.113C34.2163 55.6924 33.7038 55.4826 33.0811 55.4826ZM123.041 55.4679C122.424 55.4679 121.914 55.6744 121.513 56.0918C121.11 56.5071 120.91 57.0299 120.91 57.6603C120.91 58.3133 121.116 58.8501 121.527 59.2686C121.938 59.687 122.454 59.8968 123.077 59.8968C123.686 59.8968 124.185 59.6914 124.579 59.2815C124.975 58.8748 125.171 58.337 125.171 57.6732C125.171 57.0202 124.972 56.4899 124.576 56.08C124.178 55.6712 123.668 55.4679 123.041 55.4679ZM80.6062 55.2941C80.0584 55.2941 79.5802 55.4468 79.1672 55.7545C78.9093 55.947 78.6697 56.2881 78.4482 56.7732H82.6958C82.5674 56.3354 82.3117 55.9793 81.9308 55.7028C81.551 55.4307 81.1091 55.2941 80.6062 55.2941ZM135.309 33.1184L139.23 42.6454L143.558 33.1184H147.441L137.984 53.8549H134.072L137.176 47.1679L131.436 33.1184H135.309ZM45.2823 32.7276C46.2635 32.7276 47.1868 32.9449 48.0513 33.3763C48.918 33.8088 49.6509 34.4316 50.2522 35.2395L47.9058 37.5976C46.9525 36.6499 46.088 36.1744 45.3112 36.1744C44.8854 36.1744 44.5516 36.2658 44.3119 36.4465C44.0712 36.6283 43.9503 36.8532 43.9503 37.1232C43.9503 37.3276 44.0273 37.518 44.1803 37.689C44.3333 37.8612 44.7089 38.0957 45.3112 38.3937L46.6989 39.0908C48.1615 39.8169 49.164 40.556 49.7097 41.309C50.2575 42.0642 50.5303 42.9485 50.5303 43.9629C50.5303 45.3119 50.0371 46.4372 49.0517 47.3387C48.0674 48.2412 46.746 48.692 45.0898 48.692C42.8857 48.692 41.1289 47.8281 39.815 46.0962L42.1475 43.5423C42.5904 44.064 43.1104 44.4847 43.7074 44.8063C44.3033 45.1258 44.834 45.2872 45.2973 45.2872C45.797 45.2872 46.1993 45.1678 46.5053 44.9257C46.8102 44.6815 46.9621 44.405 46.9621 44.0888C46.9621 43.5025 46.4122 42.9291 45.3112 42.3697L44.0337 41.7275C41.5922 40.4925 40.3703 38.9423 40.3703 37.0823C40.3703 35.8807 40.8293 34.8555 41.7505 34.0046C42.6717 33.1536 43.8497 32.7276 45.2823 32.7276ZM61.3273 32.7275C62.8273 32.7275 64.1722 33.0277 65.3673 33.6279C66.5603 34.2271 67.5361 35.0824 68.2957 36.1882L65.1405 37.9331C64.5488 37.3103 63.9625 36.8767 63.3837 36.6347C62.8038 36.3937 62.1244 36.2722 61.3476 36.2722C59.93 36.2722 58.783 36.6982 57.9067 37.5469C57.0326 38.3968 56.5939 39.4865 56.5939 40.814C56.5939 42.106 57.0166 43.1603 57.8597 43.9779C58.7017 44.7965 59.8091 45.2032 61.1807 45.2032C62.8765 45.2032 64.1958 44.6212 65.1405 43.4604L68.1288 45.5151C66.509 47.6344 64.2225 48.6919 61.2727 48.6919C58.6172 48.6919 56.5372 47.9023 55.0329 46.3209C53.5297 44.7395 52.7786 42.887 52.7786 40.7645C52.7786 39.2961 53.1434 37.9428 53.8742 36.7046C54.606 35.4675 55.6246 34.4961 56.9352 33.7882C58.2438 33.0814 59.7096 32.7275 61.3273 32.7275ZM78.8013 32.7276C80.2264 32.7276 81.5659 33.0869 82.8188 33.8034C84.0728 34.5188 85.0518 35.4902 85.7547 36.7187C86.4598 37.9472 86.8107 39.2726 86.8107 40.6958C86.8107 42.1287 86.4555 43.4681 85.7504 44.7149C85.0389 45.9628 84.0739 46.9374 82.8541 47.6399C81.6334 48.3424 80.2863 48.692 78.8152 48.692C76.6518 48.692 74.8019 47.9174 73.2697 46.3705C71.7397 44.8214 70.9737 42.9388 70.9737 40.7248C70.9737 38.3517 71.8403 36.3745 73.5693 34.792C75.0875 33.4161 76.8315 32.7276 78.8013 32.7276ZM112.93 32.7274C115.309 32.7274 117.243 33.4923 118.733 35.0231C120.222 36.555 120.967 38.5763 120.967 41.0861L120.953 41.8122H108.782C108.958 42.8912 109.427 43.7519 110.19 44.3876C110.952 45.0245 111.925 45.3418 113.112 45.3418C114.527 45.3418 115.744 44.8459 116.761 43.8508L119.953 45.358C119.159 46.4918 118.206 47.3331 117.096 47.8753C115.983 48.4196 114.665 48.6918 113.139 48.6918C110.771 48.6918 108.841 47.9398 107.351 46.4391C105.862 44.9352 105.116 43.0537 105.116 40.7946C105.116 38.4774 105.86 36.555 107.345 35.0231C108.829 33.4923 110.691 32.7274 112.93 32.7274ZM19.3254 27.7743C22.2933 27.7743 24.4974 28.1443 25.9396 28.8834C27.383 29.6224 28.5695 30.8262 29.5036 32.4915C30.4366 34.1546 30.9041 36.0996 30.9041 38.3243C30.9041 39.9046 30.6431 41.3579 30.1209 42.6854C29.5988 44.0119 28.8777 45.1102 27.9575 45.9859C27.0363 46.8594 26.0413 47.4651 24.9692 47.7996C23.8961 48.1342 22.0366 48.302 19.3949 48.302H14.7215V27.7743H19.3254ZM37.5654 33.1187V48.302H33.7768V33.1187H37.5654ZM92.1492 33.1184L95.9635 42.0785L99.7693 33.1184H103.611L97.1854 48.3018H94.7288L88.2879 33.1184H92.1492ZM129.697 32.7279C130.188 32.7279 130.701 32.8592 131.238 33.1184L130.058 36.3985C129.615 36.1736 129.248 36.0628 128.962 36.0628C128.378 36.0628 127.885 36.4253 127.483 37.1515C127.08 37.8776 126.881 39.3009 126.881 41.4212L126.893 42.1613V48.3018H123.133V33.1184H126.379V35.0301C126.732 34.277 127.199 33.7037 127.784 33.3142C128.367 32.9237 129.003 32.7279 129.697 32.7279ZM78.8644 36.3142C77.6875 36.3142 76.7063 36.7262 75.9231 37.5481C75.1421 38.3722 74.7484 39.4275 74.7484 40.7098C74.7484 42.0308 75.1357 43.1002 75.9092 43.921C76.6828 44.7396 77.6639 45.1484 78.8505 45.1484C80.037 45.1484 81.0256 44.7332 81.812 43.9059C82.5984 43.0776 82.9932 42.0136 82.9932 40.7098C82.9932 39.4081 82.6059 38.3496 81.8324 37.5352C81.0599 36.7209 80.0691 36.3142 78.8644 36.3142ZM19.8978 31.5416H18.5796V44.4917H20.3846C22.1607 44.4917 23.4489 44.2883 24.2492 43.8774C25.0505 43.4675 25.7043 42.778 26.2135 41.8098C26.7207 40.8416 26.9764 39.6486 26.9764 38.2339C26.9764 36.0544 26.3698 34.3644 25.1575 33.1628C24.0662 32.0816 22.3126 31.5416 19.8978 31.5416ZM113.119 35.9515C112.062 35.9515 111.135 36.2495 110.337 36.8444C109.838 37.2176 109.374 37.8717 108.947 38.8119H117.163C116.914 37.9653 116.42 37.2768 115.683 36.7465C114.948 36.2172 114.092 35.9515 113.119 35.9515ZM143.163 21.0228C152.504 27.8496 163.563 33.5393 164.867 34.2547C167.476 35.6854 130.978 19.5285 123.15 18.9315C116.184 18.4011 112.787 19.8544 112.124 20.1805L112.083 20.2007C112.029 20.2284 112.002 20.2439 112.002 20.2439C112.002 20.2439 127.419 25.8476 126.827 26.6824C126.234 27.5171 101.105 26.876 102.514 25.669C102.514 25.669 104.74 23.6428 107.062 21.6805L107.32 21.4629C107.396 21.3992 107.472 21.3356 107.547 21.2723L107.774 21.083C109.512 19.6382 111.181 18.3492 111.883 18.0967C114.522 17.1478 123.462 10.3802 124.455 8.55679C124.656 8.18781 133.893 14.2476 143.163 21.0228ZM58.3506 9.03927C61.6005 10.7829 64.366 12.3768 67.1295 13.9258L67.6477 14.2157C67.8317 14.3184 68.0158 14.4209 68.2002 14.5234L68.7542 14.8302C74.1204 17.7927 79.8305 20.6643 89.3497 24.1979C87.3328 25.6286 58.1581 12.6119 55.5485 12.1342C52.939 11.6577 52.939 20.0648 52.2275 20.124C51.3383 20.2434 44.3143 13.2961 42.3841 14.4601C41.5834 14.9432 40.029 18.0862 38.3872 21.4119L38.1678 21.8562C38.0946 22.0045 38.0212 22.153 37.9478 22.3014L37.7274 22.7461L37.5249 23.1531L37.3883 23.4267C35.7046 26.7929 34.0699 29.8291 33.1924 29.9027C31.7694 30.021 23.9428 18.2758 21.8083 17.3216C21.2694 17.0809 17.4316 18.9492 13.1096 21.1012L12.8176 21.2466C12.3784 21.4655 11.935 21.6868 11.4902 21.9086L10.8844 22.2107C10.7313 22.287 10.5782 22.3633 10.4253 22.4395L10.1195 22.5916C10.0176 22.6423 9.91584 22.6929 9.81418 22.7434L9.5096 22.8945C5.04871 25.1071 0.885132 27.0953 0 26.926C2.75827 23.7504 20.992 13.3316 25.8997 8.73591C32.0219 3.85194 31.8742 0.364299 34.0676 0.00606909C34.8957 -0.128402 45.1274 1.94352 58.3506 9.03927Z" fill="#4594B3"/>
</svg>
